M48
; DRILL file KiCad 10.0.4 date 2026-06-30T19:33:14
; FORMAT={-:-/ absolute / metric / decimal}
; #@! TF.CreationDate,2026-06-30T19:33:14-03:00
; #@! TF.GenerationSoftware,Kicad,Pcbnew,10.0.4
; #@! TF.FileFunction,Plated,1,2,PTH
FMAT,2
METRIC
; #@! TA.AperFunction,Plated,PTH,ViaDrill
T1C0.600
; #@! TA.AperFunction,Plated,PTH,ComponentDrill
T2C0.760
; #@! TA.AperFunction,Plated,PTH,ComponentDrill
T3C0.800
; #@! TA.AperFunction,Plated,PTH,ComponentDrill
T4C1.000
; #@! TA.AperFunction,Plated,PTH,ComponentDrill
T5C1.100
; #@! TA.AperFunction,Plated,PTH,ComponentDrill
T6C1.200
; #@! TA.AperFunction,Plated,PTH,ComponentDrill
T7C1.400
; #@! TA.AperFunction,Plated,PTH,ComponentDrill
T8C1.500
; #@! TA.AperFunction,Plated,PTH,ComponentDrill
T9C1.600
; #@! TA.AperFunction,Plated,PTH,ComponentDrill
T10C1.930
%
G90
G05
T1
X85.81Y-143.19
X88.87Y-53.93
X90.73Y-148.55
X91.77Y-86.81
X92.5Y-90.5
X92.85Y-65.27
X95.66Y-89.11
X97.57Y-72.16
X100.94Y-86.4
X101.5Y-90.0
X104.71Y-148.18
X107.37Y-41.91
X108.09Y-56.68
X109.7Y-75.95
X112.35Y-88.67
X112.42Y-112.1
X112.53Y-135.76
X113.23Y-64.32
X115.93Y-74.16
X116.48Y-36.8
X118.43Y-56.96
X119.445Y-98.225
X119.77Y-157.46
X120.19Y-91.93
X122.81Y-69.85
X123.79Y-46.08
X124.97Y-37.18
X134.63Y-35.34
X135.09Y-54.45
X137.08Y-67.18
T2
X106.105Y-39.27
X107.375Y-36.73
X108.645Y-39.27
X109.915Y-36.73
X111.185Y-39.27
X112.455Y-36.73
X113.725Y-39.27
X114.995Y-36.73
X125.875Y-39.25
X127.145Y-36.71
X128.415Y-39.25
X129.685Y-36.71
X130.955Y-39.25
X132.225Y-36.71
X133.495Y-39.25
X134.765Y-36.71
T3
X84.88Y-55.42
X87.38Y-55.42
X88.25Y-99.92
X88.25Y-102.46
X88.25Y-105.0
X88.25Y-107.54
X88.25Y-110.08
X88.25Y-112.62
X88.25Y-115.16
X88.25Y-117.7
X88.25Y-120.24
X88.25Y-122.78
X88.25Y-125.32
X88.25Y-127.86
X88.25Y-130.4
X88.25Y-132.94
X88.25Y-135.48
X88.25Y-138.02
X88.25Y-140.56
X88.25Y-143.1
X88.25Y-145.64
X88.25Y-148.18
X92.41Y-153.32
X97.42Y-156.32
X102.08Y-159.32
X102.57Y-153.32
X103.49Y-99.92
X103.49Y-102.46
X103.49Y-105.0
X103.49Y-107.54
X103.49Y-110.08
X103.49Y-112.62
X103.49Y-115.16
X103.49Y-117.7
X103.49Y-120.24
X103.49Y-122.78
X103.49Y-125.32
X103.49Y-127.86
X103.49Y-130.4
X103.49Y-132.94
X103.49Y-135.48
X103.49Y-138.02
X103.49Y-140.56
X103.49Y-143.1
X103.49Y-145.64
X103.49Y-148.18
X107.58Y-156.32
X108.08Y-46.11
X109.44Y-64.32
X110.58Y-46.11
X111.94Y-64.32
X112.24Y-159.32
T4
X92.8Y-53.88
X95.34Y-53.88
X97.88Y-53.88
X102.96Y-53.88
X105.5Y-53.88
X108.04Y-53.88
X110.58Y-53.88
X115.874Y-93.368
X115.874Y-103.528
X115.874Y-144.428
X115.874Y-154.588
X115.874Y-85.748
X115.874Y-88.288
X115.874Y-90.828
X115.874Y-95.908
X115.874Y-98.448
X115.874Y-100.989
X115.874Y-136.808
X115.874Y-139.349
X115.874Y-141.888
X115.874Y-146.969
X115.874Y-149.508
X115.874Y-152.048
X116.0Y-118.825
X116.0Y-128.985
X116.0Y-111.205
X116.0Y-113.745
X116.0Y-116.285
X116.0Y-121.365
X116.0Y-123.905
X116.0Y-126.445
T5
X101.15Y-69.6
X101.15Y-72.14
X101.15Y-74.68
T6
X95.277Y-25.302
X95.277Y-47.146
X137.054Y-89.404
X137.054Y-92.903
X137.054Y-96.403
X137.054Y-99.903
X137.054Y-140.464
X137.054Y-143.963
X137.054Y-147.463
X137.054Y-150.963
X137.18Y-114.86
X137.18Y-118.36
X137.18Y-121.86
X137.18Y-125.36
T7
X87.5Y-25.42
X87.5Y-35.58
X87.5Y-39.18
X87.5Y-49.34
T8
X132.82Y-60.22
X137.72Y-60.22
T9
X116.67Y-46.2
X116.67Y-51.28
X116.67Y-56.36
X116.67Y-61.44
T10
X102.425Y-27.33
X118.675Y-27.33
X122.195Y-27.31
X138.445Y-27.31
M30
