<?xml version="1.0" encoding="UTF-8"?>
<!DOCTYPE svg PUBLIC "-//W3C//DTD SVG 1.1//EN" "http://www.w3.org/Graphics/SVG/1.1/DTD/svg11.dtd">
<svg xmlns="http://www.w3.org/2000/svg" style="background: #ffffff; background-color: light-dark(#ffffff, var(--ge-dark-color, #121212)); color-scheme: light dark;" xmlns:xlink="http://www.w3.org/1999/xlink" version="1.1" width="385px" height="171px" viewBox="0 0 385 171"><defs/><rect fill="#ffffff" width="100%" height="100%" x="0" y="0" style="fill: light-dark(#ffffff, var(--ge-dark-color, #121212));"/><g><g data-cell-id="0"><g data-cell-id="1"><g data-cell-id="EpCVRS_OwkySxCKdMG1c-1"><g><ellipse cx="192" cy="75" rx="192" ry="75" fill="#ffffff" stroke="#000000" pointer-events="all" style="fill: light-dark(#ffffff, var(--ge-dark-color, #121212)); stroke: light-dark(rgb(0, 0, 0), rgb(255, 255, 255));"/></g></g><g data-cell-id="EpCVRS_OwkySxCKdMG1c-2"><g><path d="M 125.95 145.95 L 127.87 4.95" fill="none" stroke="#000000" stroke-miterlimit="10" stroke-dasharray="3 3" pointer-events="stroke" style="stroke: light-dark(rgb(0, 0, 0), rgb(255, 255, 255));"/></g></g><g data-cell-id="EpCVRS_OwkySxCKdMG1c-3"><g><path d="M 233.47 148.35 L 234.24 1.65" fill="none" stroke="#000000" stroke-miterlimit="10" stroke-dasharray="3 3" pointer-events="stroke" style="stroke: light-dark(rgb(0, 0, 0), rgb(255, 255, 255));"/></g></g><g data-cell-id="EpCVRS_OwkySxCKdMG1c-4"><g><path d="M 286.85 139.95 L 288.38 9.75" fill="none" stroke="#000000" stroke-miterlimit="10" stroke-dasharray="3 3" pointer-events="stroke" style="stroke: light-dark(rgb(0, 0, 0), rgb(255, 255, 255));"/></g></g><g data-cell-id="EpCVRS_OwkySxCKdMG1c-5"><g><path d="M 331.01 127.05 L 330.24 24.15" fill="none" stroke="#000000" stroke-miterlimit="10" stroke-dasharray="3 3" pointer-events="stroke" style="stroke: light-dark(rgb(0, 0, 0), rgb(255, 255, 255));"/></g></g><g data-cell-id="EpCVRS_OwkySxCKdMG1c-6"><g><rect x="40" y="60" width="60" height="30" fill="none" stroke="none" pointer-events="all"/></g><g><g><switch><foreignObject style="overflow: visible; text-align: left;" pointer-events="none" width="100%" height="100%" requiredFeatures="http://www.w3.org/TR/SVG11/feature#Extensibility"><div xmlns="http://www.w3.org/1999/xhtml" style="display: flex; align-items: unsafe center; justify-content: unsafe center; width: 58px; height: 1px; padding-top: 75px; margin-left: 41px;"><div style="box-sizing: border-box; font-size: 0; text-align: center; color: #000000; "><div style="display: inline-block; font-size: 12px; font-family: Helvetica; color: light-dark(#000000, #ffffff); line-height: 1.2; pointer-events: all; white-space: normal; word-wrap: normal; ">Sistema<div>Central</div></div></div></div></foreignObject><text x="70" y="79" fill="light-dark(#000000, #ffffff)" font-family="Helvetica" font-size="12px" text-anchor="middle">Sistema...</text></switch></g></g></g><g data-cell-id="EpCVRS_OwkySxCKdMG1c-7"><g><rect x="150" y="60" width="60" height="30" fill="none" stroke="none" pointer-events="all"/></g><g><g><switch><foreignObject style="overflow: visible; text-align: left;" pointer-events="none" width="100%" height="100%" requiredFeatures="http://www.w3.org/TR/SVG11/feature#Extensibility"><div xmlns="http://www.w3.org/1999/xhtml" style="display: flex; align-items: unsafe center; justify-content: unsafe center; width: 58px; height: 1px; padding-top: 75px; margin-left: 151px;"><div style="box-sizing: border-box; font-size: 0; text-align: center; color: #000000; "><div style="display: inline-block; font-size: 12px; font-family: Helvetica; color: light-dark(#000000, #ffffff); line-height: 1.2; pointer-events: all; white-space: normal; word-wrap: normal; ">Piloto<div>/</div><div>Assento</div></div></div></div></foreignObject><text x="180" y="79" fill="light-dark(#000000, #ffffff)" font-family="Helvetica" font-size="12px" text-anchor="middle">Piloto...</text></switch></g></g></g><g data-cell-id="EpCVRS_OwkySxCKdMG1c-8"><g><rect x="234" y="60" width="50" height="30" fill="none" stroke="none" pointer-events="all"/></g><g><g><switch><foreignObject style="overflow: visible; text-align: left;" pointer-events="none" width="100%" height="100%" requiredFeatures="http://www.w3.org/TR/SVG11/feature#Extensibility"><div xmlns="http://www.w3.org/1999/xhtml" style="display: flex; align-items: unsafe center; justify-content: unsafe center; width: 48px; height: 1px; padding-top: 75px; margin-left: 235px;"><div style="box-sizing: border-box; font-size: 0; text-align: center; color: #000000; "><div style="display: inline-block; font-size: 12px; font-family: Helvetica; color: light-dark(#000000, #ffffff); line-height: 1.2; pointer-events: all; white-space: normal; word-wrap: normal; ">Baterias</div></div></div></foreignObject><text x="259" y="79" fill="light-dark(#000000, #ffffff)" font-family="Helvetica" font-size="12px" text-anchor="middle">Baterias</text></switch></g></g></g><g data-cell-id="EpCVRS_OwkySxCKdMG1c-9"><g><rect x="294" y="70" width="40" height="30" fill="none" stroke="none" pointer-events="all"/></g><g><g><switch><foreignObject style="overflow: visible; text-align: left;" pointer-events="none" width="100%" height="100%" requiredFeatures="http://www.w3.org/TR/SVG11/feature#Extensibility"><div xmlns="http://www.w3.org/1999/xhtml" style="display: flex; align-items: unsafe center; justify-content: unsafe center; width: 38px; height: 1px; padding-top: 85px; margin-left: 295px;"><div style="box-sizing: border-box; font-size: 0; text-align: center; color: #000000; "><div style="display: inline-block; font-size: 12px; font-family: Helvetica; color: light-dark(#000000, #ffffff); line-height: 1.2; pointer-events: all; white-space: normal; word-wrap: normal; ">Placas</div></div></div></foreignObject><text x="314" y="89" fill="light-dark(#000000, #ffffff)" font-family="Helvetica" font-size="12px" text-anchor="middle">Placas</text></switch></g></g></g><g data-cell-id="EpCVRS_OwkySxCKdMG1c-11"><g><rect x="334" y="70" width="40" height="30" fill="none" stroke="none" pointer-events="all"/></g><g><g><switch><foreignObject style="overflow: visible; text-align: left;" pointer-events="none" width="100%" height="100%" requiredFeatures="http://www.w3.org/TR/SVG11/feature#Extensibility"><div xmlns="http://www.w3.org/1999/xhtml" style="display: flex; align-items: unsafe center; justify-content: unsafe center; width: 38px; height: 1px; padding-top: 85px; margin-left: 335px;"><div style="box-sizing: border-box; font-size: 0; text-align: center; color: #000000; "><div style="display: inline-block; font-size: 12px; font-family: Helvetica; color: light-dark(#000000, #ffffff); line-height: 1.2; pointer-events: all; white-space: normal; word-wrap: normal; ">Motor</div></div></div></foreignObject><text x="354" y="89" fill="light-dark(#000000, #ffffff)" font-family="Helvetica" font-size="12px" text-anchor="middle">Motor</text></switch></g></g></g><g data-cell-id="EpCVRS_OwkySxCKdMG1c-12"><g><path d="M 239 109 L 267.5 109 L 267.5 113.5 C 268.33 113.5 269 114.17 269 115 C 269 115.83 268.33 116.5 267.5 116.5 L 267.5 121 L 239 121 Z Z" fill="#ffffff" stroke="none" pointer-events="all" style="fill: light-dark(#ffffff, var(--ge-dark-color, #121212));"/><rect x="239" y="109" width="0" height="0" fill="none" stroke="#0080f0" stroke-width="2" pointer-events="all" style="stroke: light-dark(rgb(0, 128, 240), rgb(50, 160, 255));"/><path d="M 239 109 L 252.5 109 L 252.5 121 L 239 121 Z M 254 109 L 267.5 109 L 267.5 121 L 254 121 M 267.5 113.5 C 268.33 113.5 269 114.17 269 115 C 269 115.83 268.33 116.5 267.5 116.5" fill="none" stroke="#0080f0" stroke-width="2" stroke-miterlimit="10" pointer-events="all" style="stroke: light-dark(rgb(0, 128, 240), rgb(50, 160, 255));"/></g></g><g data-cell-id="EpCVRS_OwkySxCKdMG1c-19"><g><path d="M 296.85 105.5 C 295.27 105.5 294 106.69 294 108.18 L 294 127.33 C 294 128.81 295.27 130 296.85 130 L 317.25 130 C 318.83 130 320.1 128.81 320.1 127.33 L 320.1 124.5 L 323 124.5 L 323 121.91 L 320.1 121.91 L 320.1 119.05 L 323 119.05 L 323 116.45 L 320.1 116.45 L 320.1 113.59 L 323 113.59 L 323 111 L 320.1 111 L 320.1 108.18 C 320.1 106.69 318.83 105.5 317.25 105.5 Z" fill="#757575" stroke="none" pointer-events="all" style="fill: light-dark(rgb(117, 117, 117), rgb(137, 137, 137));"/><path d="M 296.81 108.14 L 296.81 127.33 L 317.29 127.33 L 317.29 108.14 Z M 308.54 110.9 L 314.31 110.9 L 314.31 115.01 L 308.54 115.01 Z M 299.82 110.9 L 307.05 110.9 L 307.05 117.68 L 299.82 117.68 Z M 308.54 116.36 L 314.31 116.36 L 314.31 124.55 L 308.54 124.55 Z M 299.82 119.17 L 307.05 119.17 L 307.05 124.55 L 299.82 124.55 Z" fill="#ffffff" stroke="none" pointer-events="all" style="fill: light-dark(rgb(255, 255, 255), rgb(18, 18, 18));"/></g></g><g data-cell-id="EpCVRS_OwkySxCKdMG1c-21"><g><path d="M 339.35 96.67 L 341.29 96.67 C 342.52 92.67 345.81 90 349.5 90 C 353.19 90 356.48 92.67 357.71 96.67 L 359.65 96.67 L 359.65 103.33 L 357.71 103.33 C 356.48 107.32 353.19 110 349.5 110 C 345.81 110 342.52 107.32 341.29 103.33 L 339.35 103.33 Z" fill="#ffffff" stroke="#000000" stroke-miterlimit="10" pointer-events="all" style="fill: light-dark(#ffffff, var(--ge-dark-color, #121212)); stroke: light-dark(rgb(0, 0, 0), rgb(255, 255, 255));"/><path d="M 335 100 L 339.35 100 M 359.65 100 L 364 100 M 341.29 96.67 C 340.63 98.82 340.63 101.17 341.29 103.33 M 357.71 96.67 C 358.37 98.82 358.37 101.17 357.71 103.33" fill="none" stroke="#000000" stroke-miterlimit="10" pointer-events="all" style="stroke: light-dark(rgb(0, 0, 0), rgb(255, 255, 255));"/></g></g><g data-cell-id="EpCVRS_OwkySxCKdMG1c-22"><g><path d="M 304.7 32.38 C 304.37 32.67 303.83 32.71 303.47 32.31 C 303.21 32 303.33 31.62 303.56 31.44 C 304.84 30.31 306.9 29.5 309.06 29.52 C 311.57 29.55 313.37 30.47 314.53 31.45 C 314.9 31.78 314.78 32.21 314.47 32.42 C 314.1 32.67 313.65 32.67 313.32 32.36 C 312.27 31.48 310.79 30.9 309.19 30.86 C 307.67 30.83 306.05 31.24 304.7 32.38 Z M 306.77 34.27 C 306.42 34.54 305.91 34.5 305.62 34.19 C 305.41 33.96 305.34 33.6 305.65 33.31 C 306.49 32.56 307.75 32.11 309.01 32.11 C 310.41 32.12 311.58 32.62 312.37 33.38 C 312.63 33.7 312.52 34.04 312.27 34.26 C 312.04 34.47 311.53 34.57 311.14 34.23 C 310.6 33.77 309.84 33.48 309 33.47 C 308.14 33.48 307.35 33.76 306.77 34.27 Z M 324 53.87 L 294 53.87 L 294 35.71 L 324 35.71 Z M 312.33 55.29 C 312.6 55.57 312.55 55.91 312.35 56.12 C 311.49 56.97 310.18 57.36 309.05 57.36 C 307.74 57.37 306.54 56.94 305.66 56.19 C 305.38 55.92 305.33 55.53 305.72 55.21 C 306.06 54.96 306.49 55 306.78 55.23 C 307.28 55.67 308.07 56.02 309.03 56.01 C 310.06 56 310.76 55.59 311.25 55.17 C 311.46 55.03 311.95 54.91 312.33 55.29 Z M 314.48 58 C 313.15 59.22 311.15 60 309.03 60 C 307.01 60 305 59.36 303.47 57.99 C 303.29 57.82 303.12 57.41 303.55 57.06 C 303.88 56.81 304.36 56.82 304.67 57.11 C 305.8 58.06 307.29 58.62 309.02 58.63 C 311.03 58.6 312.43 57.83 313.32 57.09 C 313.58 56.87 314.03 56.76 314.43 57.08 C 314.7 57.32 314.79 57.69 314.48 58 Z" fill="#5294cf" stroke="none" pointer-events="all" style="fill: light-dark(rgb(82, 148, 207), rgb(70, 127, 178));"/><path d="M 294 53.87 L 294 52.78 L 324 52.78 L 324 53.87 Z" fill-opacity="0.3" fill="#000000" stroke="none" pointer-events="all" style="fill: light-dark(rgb(0, 0, 0), rgb(237, 237, 237));"/><rect x="294" y="29.5" width="0" height="0" fill="none" stroke="#000000" pointer-events="all" style="stroke: light-dark(rgb(0, 0, 0), rgb(255, 255, 255));"/><path d="M 324 48.95 L 318.95 48.95 C 318.65 48.95 318.36 48.72 318.36 48.44 L 318.36 46.51 C 318.02 46.4 317.48 46.02 317.48 45.35 C 317.48 44.67 318.12 44.09 318.99 44.09 C 319.66 44.09 320.44 44.57 320.44 45.35 C 320.44 45.87 320.09 46.31 319.56 46.52 L 319.56 47.92 L 324 47.92 Z M 314.67 51.58 C 314.38 51.58 314.08 51.35 314.08 51.06 L 314.08 46.52 C 313.79 46.4 313.23 46.08 313.19 45.38 C 313.17 44.86 313.68 44.07 314.74 44.1 C 315.56 44.13 316.15 44.69 316.16 45.35 C 316.15 45.87 315.81 46.32 315.28 46.51 L 315.28 50.56 L 324 50.56 L 324 51.58 Z M 312.6 35.71 L 312.6 39.51 L 315.16 39.51 L 315.16 37.36 C 315.16 37.07 315.41 36.81 315.81 36.81 L 322.11 36.81 C 322.5 36.81 322.76 37.07 322.76 37.35 L 322.76 42.77 C 322.76 43.01 322.5 43.31 322.11 43.31 L 315.79 43.31 C 315.46 43.31 315.16 43.08 315.16 42.76 L 315.16 40.54 L 308.95 40.54 C 308.75 40.94 308.26 41.29 307.6 41.29 C 306.77 41.29 306.12 40.72 306.12 40.01 C 306.12 39.36 306.74 38.76 307.63 38.76 C 308.18 38.76 308.74 39.07 308.95 39.51 L 311.4 39.51 L 311.4 35.71 Z M 303.84 35.71 L 305.04 35.71 L 305.04 43.44 L 307.27 45.35 L 308.34 44.45 C 308.18 44.1 308.17 43.57 308.65 43.12 C 309.3 42.56 310.15 42.67 310.6 42.98 C 311.35 43.47 311.37 44.32 310.82 44.84 C 310.31 45.31 309.62 45.32 309.19 45.17 L 308.13 46.08 L 310.02 47.7 C 310.5 47.55 311.13 47.58 311.59 47.98 C 312.34 48.63 312.04 49.46 311.54 49.83 C 310.85 50.33 309.93 50.21 309.42 49.69 C 309.16 49.43 308.95 48.97 309.17 48.45 L 303.99 44.01 C 303.89 43.93 303.84 43.8 303.84 43.65 Z M 295.92 35.71 L 297.12 35.71 L 297.12 39.51 L 299.21 39.51 C 299.47 39.02 300.02 38.76 300.55 38.76 C 301.4 38.76 302.04 39.34 302.04 40.02 C 302.04 40.65 301.48 41.29 300.51 41.29 C 300.11 41.29 299.49 41.08 299.21 40.54 L 297.12 40.54 L 297.12 44.61 L 300.79 47.75 C 301.51 47.49 302.49 47.75 302.79 48.58 C 303.05 49.44 302.29 50.21 301.29 50.18 C 300.76 50.16 300.13 49.86 299.93 49.24 C 299.85 49 299.87 48.73 299.96 48.5 L 296.09 45.19 C 295.99 45.12 295.92 45.01 295.92 44.81 Z M 305.56 52.78 L 305.56 49.08 L 300.99 45.18 C 300.29 45.39 299.62 45.15 299.27 44.72 C 298.79 44.14 298.95 43.35 299.67 42.93 C 300.34 42.56 301.17 42.71 301.62 43.19 C 302.06 43.66 301.99 44.18 301.85 44.47 L 306.76 48.64 L 306.76 52.78 Z M 295.96 52.78 L 295.96 50.07 C 295.56 49.93 295.08 49.51 295.08 48.94 C 295.08 48.11 295.86 47.65 296.54 47.65 C 297.35 47.65 298.04 48.19 298.04 48.92 C 298.04 49.4 297.71 49.86 297.16 50.07 L 297.16 52.78 Z" fill="#ffffff" stroke="none" pointer-events="all" style="fill: light-dark(rgb(255, 255, 255), rgb(18, 18, 18));"/></g></g><g data-cell-id="FRw_Z_XrPqyp7gzu-06q-1"><g><ellipse cx="254" cy="160" rx="10" ry="10" fill="#ffffff" stroke="#000000" pointer-events="all" style="fill: light-dark(#ffffff, var(--ge-dark-color, #121212)); stroke: light-dark(rgb(0, 0, 0), rgb(255, 255, 255));"/></g><g><g><switch><foreignObject style="overflow: visible; text-align: left;" pointer-events="none" width="100%" height="100%" requiredFeatures="http://www.w3.org/TR/SVG11/feature#Extensibility"><div xmlns="http://www.w3.org/1999/xhtml" style="display: flex; align-items: unsafe center; justify-content: unsafe center; width: 18px; height: 1px; padding-top: 160px; margin-left: 245px;"><div style="box-sizing: border-box; font-size: 0; text-align: center; color: #000000; "><div style="display: inline-block; font-size: 12px; font-family: Helvetica; color: light-dark(#000000, #ffffff); line-height: 1.2; pointer-events: all; white-space: normal; word-wrap: normal; ">T</div></div></div></foreignObject><text x="254" y="164" fill="light-dark(#000000, #ffffff)" font-family="Helvetica" font-size="12px" text-anchor="middle">T</text></switch></g></g></g><g data-cell-id="FRw_Z_XrPqyp7gzu-06q-4"><g><ellipse cx="309" cy="160" rx="10" ry="10" fill="#ffffff" stroke="#000000" pointer-events="all" style="fill: light-dark(#ffffff, var(--ge-dark-color, #121212)); stroke: light-dark(rgb(0, 0, 0), rgb(255, 255, 255));"/></g><g><g><switch><foreignObject style="overflow: visible; text-align: left;" pointer-events="none" width="100%" height="100%" requiredFeatures="http://www.w3.org/TR/SVG11/feature#Extensibility"><div xmlns="http://www.w3.org/1999/xhtml" style="display: flex; align-items: unsafe center; justify-content: unsafe center; width: 18px; height: 1px; padding-top: 160px; margin-left: 300px;"><div style="box-sizing: border-box; font-size: 0; text-align: center; color: #000000; "><div style="display: inline-block; font-size: 12px; font-family: Helvetica; color: light-dark(#000000, #ffffff); line-height: 1.2; pointer-events: all; white-space: normal; word-wrap: normal; ">T</div></div></div></foreignObject><text x="309" y="164" fill="light-dark(#000000, #ffffff)" font-family="Helvetica" font-size="12px" text-anchor="middle">T</text></switch></g></g></g><g data-cell-id="FRw_Z_XrPqyp7gzu-06q-5"><g><ellipse cx="349.5" cy="160" rx="10" ry="10" fill="#ffffff" stroke="#000000" pointer-events="all" style="fill: light-dark(#ffffff, var(--ge-dark-color, #121212)); stroke: light-dark(rgb(0, 0, 0), rgb(255, 255, 255));"/></g><g><g><switch><foreignObject style="overflow: visible; text-align: left;" pointer-events="none" width="100%" height="100%" requiredFeatures="http://www.w3.org/TR/SVG11/feature#Extensibility"><div xmlns="http://www.w3.org/1999/xhtml" style="display: flex; align-items: unsafe center; justify-content: unsafe center; width: 18px; height: 1px; padding-top: 160px; margin-left: 341px;"><div style="box-sizing: border-box; font-size: 0; text-align: center; color: #000000; "><div style="display: inline-block; font-size: 12px; font-family: Helvetica; color: light-dark(#000000, #ffffff); line-height: 1.2; pointer-events: all; white-space: normal; word-wrap: normal; ">T</div></div></div></foreignObject><text x="350" y="164" fill="light-dark(#000000, #ffffff)" font-family="Helvetica" font-size="12px" text-anchor="middle">T</text></switch></g></g></g><g data-cell-id="FRw_Z_XrPqyp7gzu-06q-6"><g><path d="M 254 150 L 253.7 123.22" fill="none" stroke="#000000" stroke-miterlimit="10" pointer-events="stroke" style="stroke: light-dark(rgb(0, 0, 0), rgb(255, 255, 255));"/></g></g><g data-cell-id="FRw_Z_XrPqyp7gzu-06q-7"><g><path d="M 309 150 L 309 130" fill="none" stroke="#000000" stroke-miterlimit="10" pointer-events="stroke" style="stroke: light-dark(rgb(0, 0, 0), rgb(255, 255, 255));"/></g></g><g data-cell-id="FRw_Z_XrPqyp7gzu-06q-8"><g><path d="M 349.5 150 L 349.85 109.88" fill="none" stroke="#000000" stroke-miterlimit="10" pointer-events="stroke" style="stroke: light-dark(rgb(0, 0, 0), rgb(255, 255, 255));"/></g></g><g data-cell-id="FRw_Z_XrPqyp7gzu-06q-10"><g><ellipse cx="279" cy="115" rx="5" ry="5" fill="#ffffff" stroke="#000000" pointer-events="all" style="fill: light-dark(#ffffff, var(--ge-dark-color, #121212)); stroke: light-dark(rgb(0, 0, 0), rgb(255, 255, 255));"/></g><g><g><switch><foreignObject style="overflow: visible; text-align: left;" pointer-events="none" width="100%" height="100%" requiredFeatures="http://www.w3.org/TR/SVG11/feature#Extensibility"><div xmlns="http://www.w3.org/1999/xhtml" style="display: flex; align-items: unsafe center; justify-content: unsafe center; width: 8px; height: 1px; padding-top: 115px; margin-left: 275px;"><div style="box-sizing: border-box; font-size: 0; text-align: center; color: #000000; "><div style="display: inline-block; font-size: 12px; font-family: Helvetica; color: light-dark(#000000, #ffffff); line-height: 1.2; pointer-events: all; white-space: normal; word-wrap: normal; ">A</div></div></div></foreignObject><text x="279" y="119" fill="light-dark(#000000, #ffffff)" font-family="Helvetica" font-size="12px" text-anchor="middle">A</text></switch></g></g></g><g data-cell-id="FRw_Z_XrPqyp7gzu-06q-18"><g><path d="M 282.54 111.46 Q 290 100 300 100 Q 310 100 315 100 Q 320 100 328.63 100" fill="none" stroke="#000000" stroke-miterlimit="10" pointer-events="stroke" style="stroke: light-dark(rgb(0, 0, 0), rgb(255, 51, 51));"/><path d="M 333.88 100 L 326.88 103.5 L 328.63 100 L 326.88 96.5 Z" fill="#000000" stroke="#000000" stroke-miterlimit="10" pointer-events="all" style="fill: light-dark(rgb(0, 0, 0), rgb(255, 51, 51)); stroke: light-dark(rgb(0, 0, 0), rgb(255, 51, 51));"/></g></g><g data-cell-id="FRw_Z_XrPqyp7gzu-06q-19"><g><path d="M 268.01 115 L 274 115" fill="none" stroke="#000000" stroke-miterlimit="10" pointer-events="stroke" style="stroke: light-dark(rgb(0, 0, 0), rgb(255, 51, 51));"/></g></g></g></g></g></svg>